<?xml version="1.0" encoding="UTF-8"?>
<svg id="Layer_1" data-name="Layer 1" xmlns="http://www.w3.org/2000/svg" viewBox="0 0 800 200">
  <path d="M90.89,32.28v20.16h-43.23v42.63h34.59v20.16h-34.59v49.14h-21.52V32.28h64.75Z"/>
  <path d="M174.14,52.44v20.16h-41.42v26.88h32.78v20.16h-32.78v24.57h41.42v20.16h-62.94V52.44h62.94Z"/>
  <path d="M194.45,52.44h25.01c6.05,0,11.73,1.16,17.04,3.47,5.31,2.31,9.98,5.43,14.02,9.34,4.03,3.92,7.19,8.54,9.48,13.86,2.28,5.32,3.43,10.99,3.43,17.01,0,7.98-1.91,15.09-5.73,21.32-3.82,6.23-8.95,11.17-15.38,14.8l21.11,32.13h-21.52l-17.09-26.67c-.94.14-1.84.25-2.71.31-.87.07-1.78.11-2.71.11h-3.42v26.25h-21.52V52.44ZM215.97,72.6v45.36h3.42c6.3-.14,11.63-2.17,15.99-6.09,4.35-3.92,6.54-9.17,6.54-15.75,0-3.22-.6-6.26-1.81-9.13-1.21-2.87-2.81-5.36-4.83-7.46-2.01-2.1-4.39-3.78-7.14-5.04-2.75-1.26-5.66-1.89-8.75-1.89h-3.42Z"/>
  <path d="M334.41,108.09l42.43.21v56.07h-21.52l.2-5.88c-2.41,2.24-5.4,3.96-8.95,5.14-3.55,1.19-7.34,1.79-11.36,1.79-7.64,0-14.85-1.5-21.62-4.51-6.77-3.01-12.67-7.1-17.7-12.29-5.03-5.18-9.02-11.24-11.96-18.17-2.95-6.93-4.42-14.24-4.42-21.95s1.48-15.01,4.42-21.94c2.95-6.93,6.94-12.98,11.96-18.17,5.03-5.18,10.92-9.27,17.7-12.28,6.77-3.01,13.98-4.52,21.62-4.52,6.16,0,12,.98,17.49,2.94,5.5,1.96,10.59,4.62,15.28,7.98l-14.28,15.75c-5.5-3.78-11.66-5.67-18.5-5.67-4.69,0-9.12.94-13.27,2.83-4.16,1.89-7.78,4.48-10.86,7.77-3.09,3.29-5.53,7.11-7.34,11.44-1.81,4.34-2.71,8.96-2.71,13.86s.9,9.52,2.71,13.86c1.8,4.34,4.24,8.12,7.31,11.34,3.07,3.22,6.68,5.78,10.82,7.67s8.55,2.83,13.22,2.83c4.01,0,7.64-.66,10.92-2,3.27-1.33,6.38-3.18,9.32-5.56v-8.19h-20.91v-20.37Z"/>
  <path d="M419.66,52.44v56.07h36.2v-56.07h21.52v111.93h-21.52v-35.7h-36.2v35.7h-21.52V52.44h21.52Z"/>
  <path d="M525.03,142.11l-6.84,22.26h-21.52l37.4-111.93h21.92l37.4,111.93h-21.52l-6.84-22.26h-40.02ZM558.61,121.95l-13.47-43.47-13.67,43.47h27.15Z"/>
  <path d="M684.29,126.15c0,5.6-1.01,10.81-3.03,15.64-2.02,4.83-4.77,9-8.27,12.5-3.49,3.5-7.59,6.23-12.3,8.19s-9.74,2.94-15.12,2.94-10.42-.98-15.12-2.94c-4.7-1.96-8.83-4.69-12.4-8.19-3.56-3.5-6.35-7.67-8.37-12.5-2.02-4.83-3.02-10.04-3.02-15.64V52.44h21.52v73.71c0,5.04,1.67,9.31,5.03,12.81,3.35,3.5,7.44,5.25,12.27,5.25,2.41,0,4.66-.45,6.74-1.37,2.08-.91,3.89-2.21,5.43-3.88,1.54-1.68,2.78-3.6,3.72-5.77.94-2.17,1.41-4.52,1.41-7.04V52.44h21.52v73.71Z"/>
  <path d="M704.39,83.94c0-4.62.84-8.92,2.51-12.92,1.67-3.99,3.99-7.42,6.94-10.29,2.95-2.87,6.37-5.11,10.25-6.72,3.89-1.61,8.04-2.42,12.47-2.42,5.63,0,10.86,1.26,15.68,3.78,4.83,2.52,8.65,5.95,11.46,10.29l-14.48,16.17c-.67-2.66-2.18-4.86-4.52-6.62-2.35-1.75-5.06-2.62-8.14-2.62s-5.63,1.09-7.64,3.25c-2.01,2.17-3.02,4.87-3.02,8.08,0,2.94,1.17,5.35,3.52,7.25,2.34,1.89,5.29,3.61,8.85,5.15,3.55,1.54,7.37,3.15,11.46,4.83,4.09,1.68,7.91,3.82,11.46,6.41,3.55,2.59,6.5,5.85,8.85,9.76,2.34,3.92,3.52,8.89,3.52,14.91,0,5.04-.97,9.59-2.92,13.65-1.95,4.06-4.56,7.53-7.84,10.4-3.29,2.87-7.04,5.11-11.26,6.72-4.22,1.61-8.61,2.42-13.17,2.42-6.84,0-13.34-1.5-19.5-4.51-6.17-3.01-10.99-7.38-14.48-13.12l13.67-15.12c2.14,3.78,5.06,6.65,8.75,8.61,3.69,1.96,7.54,2.94,11.56,2.94s7.14-1.22,9.75-3.67c2.61-2.45,3.92-5.21,3.92-8.29,0-3.92-1.17-7-3.52-9.24-2.35-2.24-5.3-4.09-8.85-5.56-3.55-1.47-7.37-2.9-11.46-4.31-4.09-1.4-7.91-3.22-11.46-5.46-3.55-2.24-6.5-5.21-8.85-8.92-2.35-3.71-3.52-8.64-3.52-14.81Z"/>
</svg>